<svg width="800" height="800" xmlns="http://www.w3.org/2000/svg">
 <g id="Layer_1">
  <title>Layer 1</title>
  <ellipse ry="396" rx="396.5" id="svg_2" cy="400" cx="400" stroke-width="0" stroke="#000" fill="#fff"/>
  <!-- Background -->
  <!-- Top decorative element (was brown #987d52) -->
  <g>
   <path d="m547.5,140.3081c0.617,0.1107 1.117,0.444 1.5,1c0.832,9.6839 0.665,19.3505 -0.5,29c-19.022,11.8017 -39.688,15.968 -62,12.5c-8.084,-1.6878 -16.084,-3.6878 -24,-6c-17.649,-4.0593 -33.982,-1.226 -49,8.5c-7.723,-5.5654 -8.889,-12.232 -3.5,-20c8.471,-8.1478 18.638,-12.3144 30.5,-12.5c5.667,-0.6667 11.333,-0.6667 17,0c11.032,2.8415 22.032,5.8415 33,9c22.67,2.3232 41.67,-4.8434 57,-21.5z" fill="#7C3AED"/>
  </g>
  <!-- Left wing (was navy #122e70) -->
  <g>
   <path d="m241.5,226.3081c14.214,-0.142 25.047,5.858 32.5,18c0.333,27.333 0.667,54.667 1,82c4.154,13.16 11.821,23.827 23,32c-0.407,15.243 1.259,30.243 5,45c2.156,9.161 7.323,15.994 15.5,20.5c7.187,3.867 14.353,7.7 21.5,11.5c0.94,19.33 5.607,37.664 14,55c7.706,10.605 18.206,16.105 31.5,16.5c5.657,0.499 11.324,0.666 17,0.5c0.167,59.334 0,118.668 -0.5,178c-13.255,-24.924 -31.755,-45.091 -55.5,-60.5c-25.322,-13.323 -49.989,-27.657 -74,-43c-16.444,-12.111 -31.277,-25.944 -44.5,-41.5c-16.638,-22.907 -25.9716,-48.573 -28,-77c-0.5,-71.999 -0.6667,-143.999 -0.5,-216c5.3691,-0.678 10.369,-2.512 15,-5.5c7.881,-7.269 16.881,-12.436 27,-15.5z" fill="#6D28D9"/>
  </g>
  <!-- Left text decoration (was beige #cabca6) -->
  <g>
   <path d="m337.5,242.3081c-13.51,-0.329 -26.844,0.004 -40,1c-0.789,-0.283 -1.456,-0.783 -2,-1.5c14.173,-0.827 28.173,-0.661 42,0.5z" fill="#8B5CF6"/>
  </g>
  <!-- Right text decoration (was grey blue #8795b6) -->
  <g>
   <path d="m474.5,242.3081c13.827,-1.161 27.827,-1.327 42,-0.5c-0.544,0.717 -1.211,1.217 -2,1.5c-13.156,-0.996 -26.49,-1.329 -40,-1z" fill="#8B5CF6"/>
  </g>
  <!-- Left inner detail (was brown #987d52) -->
  <g>
   <path d="m297.5,243.3081c13.156,-0.996 26.49,-1.329 40,-1c3.256,9.268 6.423,18.601 9.5,28c0.242,23.676 -0.258,47.343 -1.5,71c-13.673,5.497 -27.34,10.664 -41,15.5c14.008,-27.682 28.008,-55.349 42,-83c-0.84,-1.767 -2.173,-3.101 -4,-4c-15.028,-8.845 -30.028,-17.678 -45,-26.5z" fill="#7C3AED"/>
  </g>
  <!-- Right inner detail (was navy #163071) -->
  <g>
   <path d="m474.5,242.3081c13.51,-0.329 26.844,0.004 40,1c-17.035,9.235 -33.368,19.401 -49,30.5c13.481,27.962 27.481,55.629 42,83c-13.777,-4.542 -27.444,-9.708 -41,-15.5c-1.35,-23.654 -1.85,-47.32 -1.5,-71c3.077,-9.399 6.244,-18.732 9.5,-28z" fill="#6D28D9"/>
  </g>
  <!-- Left middle detail (was brown #997e54) -->
  <g>
   <path d="m406.5,395.3081c0.333,0 0.667,0 1,0c-0.333,0.667 -0.667,1.333 -1,2c-0.333,0 -0.667,0 -1,0c-19.067,-18.715 -38.4,-37.215 -58,-55.5c13.35,0.835 26.683,2.168 40,4c6.062,16.7 12.396,33.2 19,49.5z" fill="#7C3AED"/>
  </g>
  <!-- Right middle detail (was navy #183172) -->
  <g>
   <path d="m407.5,395.3081c-0.333,0 -0.667,0 -1,0c5.728,-16.348 11.561,-32.681 17.5,-49c13.401,-2.279 26.901,-3.779 40.5,-4.5c-19.032,17.84 -38.032,35.674 -57,53.5z" fill="#6D28D9"/>
  </g>
  <!-- Bottom detail (was navy #163071) -->
  <g>
   <path d="m405.5,397.3081c0.333,0 0.667,0 1,0c17.98,16.311 35.98,32.645 54,49c-0.5,0.333 -1,0.667 -1.5,1c-17.809,-5.77 -35.642,-11.436 -53.5,-17c-18.008,5.17 -35.842,10.836 -53.5,17c3.291,-4.307 7.124,-8.473 11.5,-12.5c13.871,-12.708 27.871,-25.208 42,-37.5z" fill="#6D28D9"/>
  </g>
 </g>

</svg>